<?xml version="1.0" encoding="UTF-8" standalone="no"?>
<!-- Created with Inkscape (http://www.inkscape.org/) -->

<svg
   xmlns:dc="http://purl.org/dc/elements/1.1/"
   xmlns:cc="http://creativecommons.org/ns#"
   xmlns:rdf="http://www.w3.org/1999/02/22-rdf-syntax-ns#"
   xmlns:svg="http://www.w3.org/2000/svg"
   xmlns="http://www.w3.org/2000/svg"
   xmlns:sodipodi="http://sodipodi.sourceforge.net/DTD/sodipodi-0.dtd"
   xmlns:inkscape="http://www.inkscape.org/namespaces/inkscape"
   width="744.09448819"
   height="1052.3622047"
   id="svg4482"
   version="1.1"
   inkscape:version="0.48.5 r10040"
   sodipodi:docname="sigils.svg">
  <defs
     id="defs4484" />
  <sodipodi:namedview
     id="base"
     pagecolor="#ffffff"
     bordercolor="#666666"
     borderopacity="1.0"
     inkscape:pageopacity="0.0"
     inkscape:pageshadow="2"
     inkscape:zoom="2.62"
     inkscape:cx="432.05952"
     inkscape:cy="992.0917"
     inkscape:document-units="px"
     inkscape:current-layer="layer1"
     showgrid="true"
     inkscape:window-width="1920"
     inkscape:window-height="1018"
     inkscape:window-x="-8"
     inkscape:window-y="-8"
     inkscape:window-maximized="1"
     inkscape:snap-grids="false"
     inkscape:snap-to-guides="false">
    <inkscape:grid
       type="xygrid"
       id="grid4490" />
  </sodipodi:namedview>
  <metadata
     id="metadata4487">
    <rdf:RDF>
      <cc:Work
         rdf:about="">
        <dc:format>image/svg+xml</dc:format>
        <dc:type
           rdf:resource="http://purl.org/dc/dcmitype/StillImage" />
        <dc:title />
      </cc:Work>
    </rdf:RDF>
  </metadata>
  <g
     inkscape:label="Layer 1"
     inkscape:groupmode="layer"
     id="layer1">
    <path
       style="fill:#cccccc;stroke:none"
       d="m 21.73837,148.01108 28,-10.8 26.8,10.4 0,29.6 -10,36 -16,25.2 -16.4,-23.2 -10.8,-36.4 z"
       id="path4556-4-0"
       inkscape:connector-curvature="0" />
    <path
       style="fill:#ffffff;stroke:none"
       d="m 21.57557,283.94335 23.208956,-9.00022 22.214287,8.66688 0,24.66728 -8.288914,30.00075 -13.26226,21.00051 -13.593817,-19.3338 -8.952025,-30.33409 z"
       id="path4556-4"
       inkscape:connector-curvature="0" />
    <path
       style="fill:#808080;stroke:#000000;stroke-width:0.83111966px;stroke-linecap:butt;stroke-linejoin:miter;stroke-opacity:1"
       d="m 44.442608,273.53684 -24.71132,9.1669 c 0,0 -3.885429,46.82409 25.125766,79.74156 30.005865,-36.7509 23.208956,-81.25201 23.208956,-81.25201 l -23.623402,-7.65645 z m 0.310835,3.80218 20.256031,7.60436 c 0,0 5.84394,37.30869 -20.074711,71.92886 C 19.016112,327.46372 22.943241,285.0215 22.943241,285.0215 l 21.810202,-7.68248 z"
       id="path4048-9-7"
       inkscape:connector-curvature="0" />
    <path
       style="fill:#808080;stroke:#000000;stroke-width:1px;stroke-linecap:butt;stroke-linejoin:miter;stroke-opacity:1"
       d="m 49.50067,135.67215 -29.8125,11 c 0,0 -4.6875,56.1875 30.3125,95.6875 36.2,-44.1 28,-97.5 28,-97.5 l -28.5,-9.1875 z m 0.375,4.5625 24.4375,9.125 c 0,0 7.05031,44.76932 -24.21875,86.3125 C 18.82536,200.38278 23.56317,149.4534 23.56317,149.4534 l 26.3125,-9.21875 z"
       id="path4048-9-7-5"
       inkscape:connector-curvature="0" />
    <path
       style="fill:#333333;stroke:#000000;stroke-width:1px;stroke-linecap:butt;stroke-linejoin:miter;stroke-opacity:1"
       d="m 38.5962,194.43759 21.68675,0.30121 -6.0241,-5.12049 10.54217,-5.72289 1.50603,-3.91567 -26.50603,0 c 0,0 -8.13253,-0.3012 -9.03614,4.21687 0,0 4.51807,-1.50602 8.13253,-1.50602 l 4.81927,6.0241 z"
       id="path6398"
       inkscape:connector-curvature="0"
       sodipodi:nodetypes="cccccccccc" />
    <path
       style="fill:#333333;stroke:#000000;stroke-width:0.49494946;stroke-linecap:butt;stroke-linejoin:miter;stroke-miterlimit:4;stroke-opacity:1;stroke-dasharray:none"
       d="m 64.53937,166.28619 -3.53535,0 -1.76768,-3.53535 0,-5.30303 1.76768,-3.53536 3.53535,0 1.76767,3.53536 0,5.30303 z"
       id="path6400"
       inkscape:connector-curvature="0" />
    <rect
       style="fill:#552200;fill-opacity:1;stroke:#000000;stroke-width:0.49494946;stroke-miterlimit:4;stroke-opacity:1;stroke-dasharray:none"
       id="rect6402"
       width="29.696968"
       height="2.4747474"
       x="29.53941"
       y="158.86192" />
    <path
       style="fill:#aa4400;stroke:none"
       d="m 91.91317,148.15965 28,-10.8 26.8,10.4 0,29.6 -10,36.00001 -16,25.19999 -16.4,-23.19999 -10.8,-36.40001 z"
       id="path4556-4-8"
       inkscape:connector-curvature="0" />
    <path
       style="fill:#808080;stroke:#000000;stroke-width:1px;stroke-linecap:butt;stroke-linejoin:miter;stroke-opacity:1"
       d="m 119.50067,135.67215 -29.8125,11 c 0,0 -4.6875,56.18751 30.3125,95.6875 36.2,-44.09999 28,-97.5 28,-97.5 l -28.5,-9.1875 z m 0.375,4.5625 24.4375,9.125 c 0,0 7.0503,44.76933 -24.21875,86.3125 C 88.82536,200.38279 93.56317,149.4534 93.56317,149.4534 l 26.3125,-9.21875 z"
       id="path4048-9-7-39"
       inkscape:connector-curvature="0" />
    <path
       style="fill:#280b0b;stroke:#000000;stroke-width:0.88425869px;stroke-linecap:butt;stroke-linejoin:miter;stroke-opacity:1"
       d="m 105.13866,180.70924 -4.27129,6.00879 2.9671,-7.32962 -1.76378,1.3685 3.27634,-8.21307 -3.19326,1.55256 4.93989,-8.37764 -2.80028,2.49446 5.801,-7.39676 -4.41371,2.05709 7.43949,-7.26037 -3.19326,1.55256 8.6936,-5.33758 -2.80886,-0.23382 6.93839,-1.24079 -5.0823,4.42595 2.80885,0.23382 -7.84104,3.59017 4.00425,0.0303 -5.21616,3.20254 3.277,0.2728 -5.31638,4.40646 3.14315,-0.9506 -5.4166,5.61038 3.63634,-1.21261 -5.12384,7.7562 4.82317,-4.14446 -4.02865,8.75657 2.1818,-0.72757 -6.96278,10.02764 z"
       id="path6445"
       inkscape:connector-curvature="0"
       sodipodi:nodetypes="ccccccccccccccccccccccccccccccc" />
    <path
       style="fill:#280b0b;stroke:#000000;stroke-width:0.88425869px;stroke-linecap:butt;stroke-linejoin:miter;stroke-opacity:1"
       d="m 114.57677,184.57619 -4.27129,6.00879 2.9671,-7.32962 -1.76378,1.36849 3.27634,-8.21306 -3.19326,1.55256 4.93989,-8.37764 -2.80028,2.49446 5.801,-7.39676 -4.41371,2.05709 7.43949,-7.26037 -3.19326,1.55256 8.6936,-5.33758 -2.80886,-0.23383 6.93842,-1.24079 -5.08233,4.42595 2.80883,0.23383 -7.84102,3.59016 4.00425,0.0303 -5.21616,3.20255 3.277,0.2728 -5.31638,4.40646 3.14315,-0.9506 -5.4166,5.61038 3.63634,-1.21261 -5.12384,7.7562 4.82317,-4.14446 -4.02865,8.75657 2.1818,-0.72757 -6.96278,10.02764 z"
       id="path6445-3"
       inkscape:connector-curvature="0"
       sodipodi:nodetypes="ccccccccccccccccccccccccccccccc" />
    <path
       style="fill:#280b0b;stroke:#000000;stroke-width:0.88425869px;stroke-linecap:butt;stroke-linejoin:miter;stroke-opacity:1"
       d="m 123.91412,189.99788 -4.27129,6.00879 2.9671,-7.32962 -1.76378,1.36849 3.27634,-8.21306 -3.19326,1.55256 4.93989,-8.37765 -2.80028,2.49447 5.80103,-7.39677 -4.41374,2.05709 7.43944,-7.26036 -3.1932,1.55256 8.6936,-5.33758 -2.8089,-0.23383 6.9384,-1.24079 -5.0823,4.42595 2.8089,0.23383 -7.8411,3.59016 4.0043,0.0303 -5.2162,3.20255 3.277,0.2728 -5.31636,4.40646 3.14316,-0.9506 -5.41661,5.61037 3.63631,-1.21261 -5.12381,7.7562 4.82321,-4.14445 -4.02869,8.75657 2.1818,-0.72757 -6.96278,10.02764 z"
       id="path6445-9"
       inkscape:connector-curvature="0"
       sodipodi:nodetypes="ccccccccccccccccccccccccccccccc" />
    <path
       style="fill:#000080;stroke:none"
       d="m 161.91317,148.15965 28,-10.8 26.8,10.4 0,29.6 -10,36 -16,25.19999 -16.4,-23.19999 -10.8,-36.4 z"
       id="path4556-4-6"
       inkscape:connector-curvature="0" />
    <path
       style="fill:#808080;stroke:#000000;stroke-width:1px;stroke-linecap:butt;stroke-linejoin:miter;stroke-opacity:1"
       d="m 189.50067,135.67215 -29.8125,11 c 0,0 -4.6875,56.1875 30.3125,95.68749 36.2,-44.09999 28,-97.49999 28,-97.49999 l -28.5,-9.1875 z m 0.375,4.5625 24.4375,9.125 c 0,0 7.0503,44.76932 -24.2187,86.31249 -31.2691,-35.28936 -26.5313,-86.21874 -26.5313,-86.21874 l 26.3125,-9.21875 z"
       id="path4048-9-7-7"
       inkscape:connector-curvature="0" />
    <path
       style="fill:#666666;stroke:#000000;stroke-width:0.4950279px;stroke-linecap:butt;stroke-linejoin:miter;stroke-opacity:1"
       d="m 170.87807,186.7306 2.4751,-4.95028 0,-22.27625 0,-2.47514 2.4751,0 0,2.47514 2.4752,0 0,-2.47514 2.4751,0 0,2.47514 2.4751,0 0,-2.47514 2.4752,0 0,14.85084 2.4751,0 0,-2.47514 2.4752,0 0,2.47514 2.4751,0 0,-2.47514 2.4752,0 0,2.47514 2.4751,0 0,-14.85084 2.4751,0 0,2.47514 2.4752,0 0,-2.47514 2.4751,0 0,2.47514 0,22.27625 2.4751,4.95028 z"
       id="path6493-3"
       inkscape:connector-curvature="0" />
    <path
       style="fill:none;stroke:#000000;stroke-width:0.4950279px;stroke-linecap:butt;stroke-linejoin:miter;stroke-opacity:1"
       d="m 203.05487,161.97921 0,4.95028"
       id="path4696-9-5"
       inkscape:connector-curvature="0" />
    <path
       style="fill:none;stroke:#000000;stroke-width:0.4950279px;stroke-linecap:butt;stroke-linejoin:miter;stroke-opacity:1"
       d="m 200.57967,161.97921 0,4.95028"
       id="path4696-97-5"
       inkscape:connector-curvature="0" />
    <path
       style="fill:none;stroke:#000000;stroke-width:0.4950279px;stroke-linecap:butt;stroke-linejoin:miter;stroke-opacity:1"
       d="m 183.25367,161.97921 0,4.95028"
       id="path4696-6-3"
       inkscape:connector-curvature="0" />
    <path
       style="fill:none;stroke:#000000;stroke-width:0.4950279px;stroke-linecap:butt;stroke-linejoin:miter;stroke-opacity:1"
       d="m 180.77857,161.97921 0,4.95028"
       id="path4696-93-2"
       inkscape:connector-curvature="0" />
    <path
       style="fill:none;stroke:#000000;stroke-width:0.4950279px;stroke-linecap:butt;stroke-linejoin:miter;stroke-opacity:1"
       d="m 178.30347,161.97921 0,4.95028"
       id="path4696-5-8"
       inkscape:connector-curvature="0" />
    <path
       style="fill:none;stroke:#000000;stroke-width:0.4950279px;stroke-linecap:butt;stroke-linejoin:miter;stroke-opacity:1"
       d="m 175.82827,161.97921 0,4.95028"
       id="path4696-7-2"
       inkscape:connector-curvature="0" />
    <path
       style="fill:#784421;stroke:#000000;stroke-width:0.4950279px;stroke-linecap:butt;stroke-linejoin:miter;stroke-opacity:1"
       d="m 189.49107,186.82961 0,-7.42542 7.4254,0 0,7.42542 z"
       id="path4708-6-5"
       inkscape:connector-curvature="0" />
    <path
       style="fill:none;stroke:#000000;stroke-width:0.4950279px;stroke-linecap:butt;stroke-linejoin:miter;stroke-opacity:1"
       d="m 193.15427,179.30519 0.198,7.32641"
       id="path4710-6-3"
       inkscape:connector-curvature="0" />
    <path
       sodipodi:type="arc"
       style="color:#000000;fill:#000000;fill-opacity:1;fill-rule:nonzero;stroke:#000000;stroke-width:1;stroke-linecap:butt;stroke-linejoin:miter;stroke-miterlimit:4;stroke-opacity:1;stroke-dasharray:none;stroke-dashoffset:0;marker:none;visibility:visible;display:inline;overflow:visible;enable-background:accumulate"
       id="path4712-58-6"
       sodipodi:cx="412.39999"
       sodipodi:cy="205.36218"
       sodipodi:rx="0.80000001"
       sodipodi:ry="1"
       d="m 413.19999,205.36218 a 0.80000001,1 0 1 1 -1.6,0 0.80000001,1 0 1 1 1.6,0 z"
       transform="matrix(0.49502789,0,0,0.49502789,-12.3813,80.912362)" />
    <path
       transform="matrix(0.49502789,0,0,0.49502789,-9.41112,81.011362)"
       sodipodi:type="arc"
       style="color:#000000;fill:#000000;fill-opacity:1;fill-rule:nonzero;stroke:#000000;stroke-width:1;stroke-linecap:butt;stroke-linejoin:miter;stroke-miterlimit:4;stroke-opacity:1;stroke-dasharray:none;stroke-dashoffset:0;marker:none;visibility:visible;display:inline;overflow:visible;enable-background:accumulate"
       id="path4712-5-2-1"
       sodipodi:cx="412.39999"
       sodipodi:cy="205.36218"
       sodipodi:rx="0.80000001"
       sodipodi:ry="1"
       d="m 413.19999,205.36218 a 0.80000001,1 0 1 1 -1.6,0 0.80000001,1 0 1 1 1.6,0 z" />
    <path
       style="fill:none;stroke:#000000;stroke-width:0.4950279px;stroke-linecap:butt;stroke-linejoin:miter;stroke-opacity:1"
       d="m 183.25367,174.35491 0,4.95028"
       id="path4696-6-5-8"
       inkscape:connector-curvature="0" />
    <path
       style="fill:none;stroke:#000000;stroke-width:0.4950279px;stroke-linecap:butt;stroke-linejoin:miter;stroke-opacity:1"
       d="m 180.77857,174.35491 0,4.95028"
       id="path4696-93-4-6"
       inkscape:connector-curvature="0" />
    <path
       style="fill:none;stroke:#000000;stroke-width:0.4950279px;stroke-linecap:butt;stroke-linejoin:miter;stroke-opacity:1"
       d="m 178.30347,174.35491 0,4.95028"
       id="path4696-5-4-2"
       inkscape:connector-curvature="0" />
    <path
       style="fill:none;stroke:#000000;stroke-width:0.4950279px;stroke-linecap:butt;stroke-linejoin:miter;stroke-opacity:1"
       d="m 175.82827,174.35491 0,4.95028"
       id="path4696-7-1-1"
       inkscape:connector-curvature="0" />
    <path
       style="fill:none;stroke:#000000;stroke-width:0.4950279px;stroke-linecap:butt;stroke-linejoin:miter;stroke-opacity:1"
       d="m 185.72887,174.35491 0,4.95028"
       id="path4696-6-5-6-4"
       inkscape:connector-curvature="0" />
    <path
       style="fill:none;stroke:#000000;stroke-width:0.4950279px;stroke-linecap:butt;stroke-linejoin:miter;stroke-opacity:1"
       d="m 203.05487,174.35491 0,4.95028"
       id="path4696-6-5-1-6"
       inkscape:connector-curvature="0" />
    <path
       style="fill:none;stroke:#000000;stroke-width:0.4950279px;stroke-linecap:butt;stroke-linejoin:miter;stroke-opacity:1"
       d="m 200.57967,174.35491 0,4.95028"
       id="path4696-6-5-63-2"
       inkscape:connector-curvature="0" />
    <path
       style="fill:#aa0000;stroke:none"
       d="m 231.73837,148.01108 28,-10.8 26.8,10.4 0,29.59999 -10,36.00001 -16,25.2 -16.4,-23.2 -10.8,-36.40001 z"
       id="path4556-4-0-0"
       inkscape:connector-curvature="0" />
    <path
       style="fill:#808080;stroke:#000000;stroke-width:1px;stroke-linecap:butt;stroke-linejoin:miter;stroke-opacity:1"
       d="m 259.50067,135.67215 -29.8125,11 c 0,0 -4.6875,56.1875 30.3125,95.6875 36.2,-44.1 28,-97.5 28,-97.5 l -28.5,-9.1875 z m 0.375,4.5625 24.4375,9.125 c 0,0 7.0503,44.76932 -24.2188,86.3125 -31.269,-35.28937 -26.5312,-86.21875 -26.5312,-86.21875 l 26.3125,-9.21875 z"
       id="path4048-9-7-5-7"
       inkscape:connector-curvature="0" />
    <path
       style="fill:#333333;stroke:#000000;stroke-width:1px;stroke-linecap:butt;stroke-linejoin:miter;stroke-opacity:1"
       d="m 249.43297,204.0608 21.6868,0.30121 -6.0241,-5.12049 10.5421,-5.72289 1.5061,-3.91566 -26.5061,0 c 0,0 -8.1325,-0.30121 -9.0361,4.21687 0,0 4.5181,-1.50603 8.1325,-1.50603 l 4.8193,6.0241 z"
       id="path6398-4"
       inkscape:connector-curvature="0"
       sodipodi:nodetypes="cccccccccc" />
    <path
       style="fill:#333333;stroke:#000000;stroke-width:0.49494946;stroke-linecap:butt;stroke-linejoin:miter;stroke-miterlimit:4;stroke-opacity:1;stroke-dasharray:none"
       d="m 273.05267,160.67433 -2.4999,2.49987 -3.7498,-1.24994 -3.7498,-3.74981 -1.2499,-3.74981 2.4999,-2.49987 3.7498,1.24994 3.7498,3.74981 z"
       id="path6400-7"
       inkscape:connector-curvature="0" />
    <rect
       style="fill:#552200;fill-opacity:1;stroke:#000000;stroke-width:0.49494946;stroke-miterlimit:4;stroke-opacity:1;stroke-dasharray:none"
       id="rect6402-8"
       width="29.696968"
       height="2.4747474"
       x="44.463501"
       y="299.26712"
       transform="matrix(0.70710678,-0.70710678,0.70710678,0.70710678,0,0)" />
    <g
       id="g4089">
      <path
         inkscape:connector-curvature="0"
         id="path4556-4-1"
         d="m 91.411203,44.360153 23.209997,-8.952426 22.21527,8.620854 0,24.536274 -8.28928,29.84142 -13.26285,20.888975 -13.59442,-19.23112 -8.952432,-30.17299 z"
         style="fill:#ffcc00;stroke:none" />
      <path
         inkscape:connector-curvature="0"
         id="path3300"
         d="m 130.70298,68.189922 c 0,0 -7.64255,-18.02869 -22.92782,-2.547528 0,0 -5.09501,-6.662784 -9.014345,-6.466817 0,0 -1.567672,3.723322 -0.195958,10.386097 z"
         style="fill:#008080;stroke:#000000;stroke-width:0.82892817px;stroke-linecap:butt;stroke-linejoin:miter;stroke-opacity:1" />
      <path
         inkscape:connector-curvature="0"
         id="path3298"
         d="m 93.469846,66.426253 c 0,0 11.365934,-6.662783 20.184234,-0.587892 8.81839,6.074883 21.36016,-1.371752 21.36016,-1.371752 l 1.56767,0.195967 c 0,0 -0.78384,25.6713 -21.75199,54.869924 0,0 -18.224653,-17.63674 -23.319743,-52.518354 z"
         style="fill:#0000ff;stroke:#000000;stroke-width:0.82892817px;stroke-linecap:butt;stroke-linejoin:miter;stroke-opacity:1" />
      <path
         inkscape:connector-curvature="0"
         id="path4048-9-7-74"
         d="m 114.27926,34.008911 -24.712422,9.118211 c 0,0 -3.885601,46.57541 25.126892,79.318058 30.0072,-36.555718 23.20999,-80.82049 23.20999,-80.82049 l -23.62446,-7.615779 z m 0.31085,3.781986 20.25693,7.563969 c 0,0 5.84419,37.110551 -20.07564,71.546854 C 88.851639,87.649384 92.778935,45.432578 92.778935,45.432578 l 21.811175,-7.641681 z"
         style="fill:#808080;stroke:#000000;stroke-width:0.82892817px;stroke-linecap:butt;stroke-linejoin:miter;stroke-opacity:1" />
      <path
         inkscape:connector-curvature="0"
         id="path3304"
         d="m 122.86447,51.924901 c 0,0 -1.95967,1.175785 -2.54754,6.270858"
         style="fill:none;stroke:#0000ff;stroke-width:0.82892817px;stroke-linecap:butt;stroke-linejoin:miter;stroke-opacity:1" />
      <path
         inkscape:connector-curvature="0"
         id="path3304-0"
         d="m 117.6714,52.512794 c 0,0 1.95959,1.175785 2.54755,6.270858"
         style="fill:none;stroke:#0000ff;stroke-width:0.82892817px;stroke-linecap:butt;stroke-linejoin:miter;stroke-opacity:1" />
      <path
         inkscape:connector-curvature="0"
         id="path3304-9"
         d="m 122.29624,48.671839 c 0,0 -1.83914,1.771046 -2.39096,9.445595"
         style="fill:none;stroke:#0000ff;stroke-width:0.98557168px;stroke-linecap:butt;stroke-linejoin:miter;stroke-opacity:1" />
    </g>
    <g
       id="g4082">
      <path
         inkscape:connector-curvature="0"
         id="path4556-4-4"
         d="m 161.41121,44.360147 23.20999,-8.952425 22.21527,8.620854 0,24.536275 -8.28928,29.841422 -13.26285,20.888977 -13.59442,-19.23112 -8.95243,-30.172993 z"
         style="fill:#ffeeaa;stroke:none" />
      <path
         transform="matrix(0.82892822,0,0,0.82892822,-163.71368,24.070934)"
         d="m 436.29994,36.752903 a 6.1015124,6.1015124 0 1 1 -12.20303,0 6.1015124,6.1015124 0 1 1 12.20303,0 z"
         sodipodi:ry="6.1015124"
         sodipodi:rx="6.1015124"
         sodipodi:cy="36.752903"
         sodipodi:cx="430.19843"
         id="path4126"
         style="color:#000000;fill:#ffcc00;fill-opacity:1;fill-rule:nonzero;stroke:#000000;stroke-width:1;stroke-linecap:butt;stroke-linejoin:miter;stroke-miterlimit:4;stroke-opacity:0;stroke-dasharray:none;stroke-dashoffset:0;marker:none;visibility:visible;display:inline;overflow:visible;enable-background:accumulate"
         sodipodi:type="arc" />
      <path
         sodipodi:nodetypes="ccccccccccccc"
         inkscape:connector-curvature="0"
         id="path4128"
         d="m 166.81698,78.140655 3.82086,-17.571264 3.51515,1.798633 3.36239,-6.502751 1.834,0.830139 2.75105,-2.628772 6.72468,2.075346 3.668,-0.553426 3.82087,6.917821 1.834,-1.106851 3.51524,13.005502 -18.7986,6.502751 z"
         style="fill:#502d16;stroke:#000000;stroke-width:0.86989176px;stroke-linecap:butt;stroke-linejoin:miter;stroke-opacity:1" />
      <path
         sodipodi:nodetypes="cccccccc"
         inkscape:connector-curvature="0"
         id="path4122"
         d="m 203.57539,75.875476 c 0,0 -3.13542,-8.62242 -13.12956,-8.62242 0,0 7.05467,7.250677 -0.19604,8.62242 0,0 -2.35151,-8.426453 -12.54169,-8.62242 0,0 8.03455,7.446635 0,9.014354 0,0 -3.13542,-7.250677 -11.56189,-8.62242 0,0 5.87893,8.034527 0.78392,8.62242 0,0 -3.33146,-5.486999 -5.09509,-6.270859 0,0 7.64255,32.921979 22.73186,49.578909 0,0 15.67711,-14.50133 19.00849,-43.699984 z"
         style="fill:#008080;stroke:#000000;stroke-width:0.82892823px;stroke-linecap:butt;stroke-linejoin:miter;stroke-opacity:1" />
      <path
         inkscape:connector-curvature="0"
         id="path4048-9-7-8"
         d="m 184.27926,34.008905 -24.71242,9.118212 c 0,0 -3.8856,46.575412 25.12689,79.318063 30.0072,-36.55572 23.20999,-80.820496 23.20999,-80.820496 l -23.62446,-7.615779 z m 0.31085,3.781986 20.25694,7.56397 c 0,0 5.84419,37.110561 -20.07557,71.546859 C 158.85164,87.649382 162.77894,45.432573 162.77894,45.432573 l 21.81117,-7.641682 z"
         style="fill:#808080;stroke:#000000;stroke-width:0.82892823px;stroke-linecap:butt;stroke-linejoin:miter;stroke-opacity:1" />
    </g>
    <g
       id="g4074">
      <path
         inkscape:connector-curvature="0"
         id="path4556-4-82"
         d="m 231.41121,44.360146 23.20999,-8.952426 22.21527,8.620854 0,24.536276 -8.28928,29.841416 -13.26285,20.888974 -13.59442,-19.23112 -8.95243,-30.172985 z"
         style="fill:#800080;stroke:none" />
      <path
         inkscape:connector-curvature="0"
         id="path4048-9-7-4"
         d="m 254.27926,34.008904 -24.71242,9.118211 c 0,0 -3.8856,46.575404 25.12689,79.318055 30.0072,-36.55572 23.20999,-80.820487 23.20999,-80.820487 l -23.62446,-7.615779 z m 0.31085,3.781985 20.25694,7.563971 c 0,0 5.84419,37.110552 -20.07565,71.54685 C 228.85164,87.649372 232.77894,45.432572 232.77894,45.432572 l 21.81117,-7.641683 z"
         style="fill:#808080;stroke:#000000;stroke-width:0.82892823px;stroke-linecap:butt;stroke-linejoin:miter;stroke-opacity:1" />
      <path
         sodipodi:nodetypes="cccscscscscscc"
         inkscape:connector-curvature="0"
         id="path4207-7-15"
         d="m 250.64906,61.434376 c -2.78429,7.37272 -0.17665,10.927752 -0.17665,10.927752 -2.477,4.33178 2.43117,3.402253 2.43117,3.402253 0,0 11.16848,6.583995 8.69744,3.759314 -3.18184,-3.637237 -3.47644,-8.487213 -3.47644,-8.487213 0,0 11.3559,4.373367 7.97056,2.114082 -3.38526,-2.259302 -1.01245,-6.410699 -1.01245,-6.410699 0,0 8.01648,2.75394 5.15949,0.427992 -2.85706,-2.325956 1.66748,-6.62312 1.66748,-6.62312 0,0 -6.24896,1.147411 -6.59023,-1.402107 -0.34127,-2.549518 -1.47782,5.327289 -1.47782,5.327289 0,0 -6.11939,1.239953 -5.8475,-2.900237 0.27189,-4.14024 -2.44244,5.365627 -1.58864,7.182812 0,0 -5.12419,-1.789863 -5.75641,-7.318093 z"
         style="fill:#008000;stroke:#000000;stroke-width:0.6462003px;stroke-linecap:butt;stroke-linejoin:miter;stroke-opacity:1" />
      <path
         inkscape:transform-center-y="3.7744045"
         inkscape:transform-center-x="-4.5397566"
         sodipodi:nodetypes="cccscscscscscc"
         inkscape:connector-curvature="0"
         id="path4207-7-1-2"
         d="m 240.37955,66.369384 c 3.34746,7.134717 7.71434,7.741858 7.71434,7.741858 1.38066,4.79515 4.13427,0.627225 4.13427,0.627225 0,0 12.50497,-3.42204 8.75713,-3.618197 -4.82593,-0.252591 -8.50969,-3.421062 -8.50969,-3.421062 0,0 11.05011,-5.09693 7.07059,-4.243341 -3.97943,0.853572 -5.30332,-3.741185 -5.30332,-3.741185 0,0 7.56149,-3.83037 3.90235,-3.402162 -3.65914,0.428199 -3.5881,-5.811318 -3.5881,-5.811318 0,0 -3.53173,5.281384 -5.59808,3.749483 -2.06635,-1.531901 2.79092,4.772281 2.79092,4.772281 0,0 -3.37507,5.252934 -6.15496,2.172828 -2.7799,-3.080181 2.14626,5.49082 4.0445,6.14477 0,0 -4.85453,2.427831 -9.25995,-0.971131 z"
         style="fill:#008000;stroke:#000000;stroke-width:0.6462003px;stroke-linecap:butt;stroke-linejoin:miter;stroke-opacity:1" />
      <path
         transform="matrix(0.82892822,0,0,0.82892822,-106.15327,49.845644)"
         d="m 436.29994,36.752903 a 6.1015124,6.1015124 0 1 1 -12.20303,0 6.1015124,6.1015124 0 1 1 12.20303,0 z"
         sodipodi:ry="6.1015124"
         sodipodi:rx="6.1015124"
         sodipodi:cy="36.752903"
         sodipodi:cx="430.19843"
         id="path4126-5-5-7"
         style="color:#000000;fill:#af0000;fill-opacity:1;fill-rule:nonzero;stroke:#000000;stroke-width:1;stroke-linecap:butt;stroke-linejoin:miter;stroke-miterlimit:4;stroke-opacity:1;stroke-dasharray:none;stroke-dashoffset:0;marker:none;visibility:visible;display:inline;overflow:visible;enable-background:accumulate"
         sodipodi:type="arc" />
      <path
         transform="matrix(0.82892822,0,0,0.82892822,-110.81943,42.434695)"
         d="m 436.29994,36.752903 a 6.1015124,6.1015124 0 1 1 -12.20303,0 6.1015124,6.1015124 0 1 1 12.20303,0 z"
         sodipodi:ry="6.1015124"
         sodipodi:rx="6.1015124"
         sodipodi:cy="36.752903"
         sodipodi:cx="430.19843"
         id="path4126-5-5-1-6"
         style="color:#000000;fill:#af0000;fill-opacity:1;fill-rule:nonzero;stroke:#000000;stroke-width:1;stroke-linecap:butt;stroke-linejoin:miter;stroke-miterlimit:4;stroke-opacity:1;stroke-dasharray:none;stroke-dashoffset:0;marker:none;visibility:visible;display:inline;overflow:visible;enable-background:accumulate"
         sodipodi:type="arc" />
    </g>
    <g
       id="g4068">
      <path
         inkscape:connector-curvature="0"
         id="path4556-4-2"
         d="m 301.41121,44.360147 23.20999,-8.952425 22.21527,8.620854 0,24.536275 -8.28928,29.841425 -13.26285,20.888974 -13.59442,-19.23112 -8.95243,-30.172993 z"
         style="fill:#008000;stroke:none" />
      <path
         inkscape:connector-curvature="0"
         id="path4048-9-7-2"
         d="m 324.27926,34.008905 -24.71242,9.118212 c 0,0 -3.8856,46.575412 25.12689,79.318063 30.0072,-36.55572 23.20999,-80.820496 23.20999,-80.820496 l -23.62446,-7.615779 z m 0.31085,3.781986 20.25694,7.56397 c 0,0 5.84419,37.110553 -20.07565,71.546859 C 298.85156,87.649382 302.77894,45.432573 302.77894,45.432573 l 21.81117,-7.641682 z"
         style="fill:#808080;stroke:#000000;stroke-width:0.82892823px;stroke-linecap:butt;stroke-linejoin:miter;stroke-opacity:1" />
      <path
         sodipodi:nodetypes="ccccc"
         inkscape:connector-curvature="0"
         id="path3917-4-1"
         d="m 315.56665,93.328062 c 0,0 5.30671,-5.202734 6.15521,-18.353415 l 5.54536,-0.277393 c 0,0 -1.7662,8.977873 5.44548,18.522725 z"
         style="fill:#a05a2c;stroke:#000000;stroke-width:0.49356475px;stroke-linecap:butt;stroke-linejoin:miter;stroke-opacity:1" />
      <path
         sodipodi:nodetypes="ccccccccccccccccccccccccc"
         inkscape:connector-curvature="0"
         id="path3999-4"
         d="m 324.3096,77.75648 -8.30718,6.26271 3.53173,-6.009389 -5.12518,1.420219 6.49639,-9.691514 -6.32323,3.451674 7.41004,-9.224098 -7.06355,4.188765 7.16327,-10.608375 -4.76244,3.275179 4.92914,-7.406748 -4.02859,1.817376 5.59261,-10.051078 6.65662,9.377731 -3.94851,-1.974258 5.18237,7.403473 -5.18237,-3.208176 7.89703,11.105209 -6.66317,-4.935646 6.90994,9.8713 -6.90994,-2.961387 7.15671,9.377723 -4.93568,-0.740341 1.72748,5.182426 z"
         style="fill:#aa0000;stroke:#000000;stroke-width:0.49356475px;stroke-linecap:butt;stroke-linejoin:miter;stroke-opacity:1" />
    </g>
    <g
       id="g4062">
      <path
         inkscape:connector-curvature="0"
         id="path4556-4-27"
         d="m 371.41121,44.360146 23.20999,-8.952426 22.21527,8.620854 0,24.536276 -8.28928,29.841424 -13.26285,20.888966 -13.59442,-19.23111 -8.95243,-30.172995 z"
         style="fill:#00001a;fill-opacity:1;stroke:none" />
      <path
         inkscape:connector-curvature="0"
         id="path4048-9-7-9"
         d="m 394.27926,34.008904 -24.71242,9.118211 c 0,0 -3.8856,46.575413 25.12689,79.318055 30.0072,-36.555712 23.20999,-80.820487 23.20999,-80.820487 l -23.62446,-7.615779 z m 0.31085,3.781985 20.25694,7.563971 c 0,0 5.84419,37.110552 -20.07565,71.54685 C 368.85156,87.64938 372.77894,45.432572 372.77894,45.432572 l 21.81117,-7.641683 z"
         style="fill:#808080;stroke:#000000;stroke-width:0.82892823px;stroke-linecap:butt;stroke-linejoin:miter;stroke-opacity:1" />
      <path
         inkscape:connector-curvature="0"
         id="path4471"
         d="m 398.9206,63.09607 c 0,0 8.76865,2.922884 11.69162,-5.236837 2.9228,-8.159729 -5.35869,-10.595468 -5.35869,-10.595468 0,0 5.35869,5.115051 2.43572,10.839041 -2.92288,5.723981 -8.76865,4.993264 -8.76865,4.993264 z"
         style="fill:#ffe680;stroke:#000000;stroke-width:0.35074633px;stroke-linecap:butt;stroke-linejoin:miter;stroke-opacity:1" />
      <path
         sodipodi:nodetypes="cccscsccccc"
         inkscape:connector-curvature="0"
         id="path4430-4"
         d="m 388.2421,75.228993 c 3.01423,-0.665082 11.90938,8.551365 11.90938,8.551365 0.0721,-5.929191 -7.84473,-13.750237 -7.84473,-13.750237 0.96819,-0.329267 1.40586,0.746036 2.35705,-2.385804 0.95112,-3.131849 0.84659,-2.592241 0.84659,-2.592241 0,0 1.29487,0.207737 -2.14925,1.09101 -3.27874,0.840848 -2.78951,2.172828 -2.78951,2.172828 -5.20409,-4.927016 -14.16853,-7.783089 -14.16853,-7.783089 0,0 9.52886,7.056675 9.02197,12.341747 0,0 -2.57001,2.81829 -4.37691,7.03329 4.19537,-1.426809 7.19394,-4.678869 7.19394,-4.678869 z"
         style="fill:#ffffff;stroke:#000000;stroke-width:0.43903676px;stroke-linecap:butt;stroke-linejoin:miter;stroke-opacity:1" />
    </g>
    <g
       id="g4051">
      <path
         inkscape:connector-curvature="0"
         id="path4556-4-9"
         d="m 441.41121,44.360145 23.20999,-8.952423 22.21527,8.620852 0,24.536275 -8.28928,29.841424 -13.26285,20.888977 -13.59442,-19.23112 -8.95243,-30.172996 z"
         style="fill:#ffcc00;stroke:none" />
      <path
         sodipodi:nodetypes="cccccc"
         inkscape:connector-curvature="0"
         id="path4944"
         d="m 442.73404,70.857836 42.65829,0.242377 -4.60516,20.602017 -15.75448,27.14618 -14.78498,-21.086763 z"
         style="fill:#00ffff;stroke:#000000;stroke-width:0.82892823px;stroke-linecap:butt;stroke-linejoin:miter;stroke-opacity:1" />
      <path
         inkscape:connector-curvature="0"
         id="path4048-9-7-46"
         d="m 464.27926,34.008905 -24.71242,9.118209 c 0,0 -3.8856,46.575413 25.12689,79.318066 30.0072,-36.555723 23.20999,-80.820496 23.20999,-80.820496 l -23.62446,-7.615779 z m 0.31085,3.781986 20.25694,7.563968 c 0,0 5.8442,37.110553 -20.07561,71.546861 -25.91981,-29.252341 -21.9925,-71.469149 -21.9925,-71.469149 l 21.81117,-7.64168 z"
         style="fill:#808080;stroke:#000000;stroke-width:0.82892823px;stroke-linecap:butt;stroke-linejoin:miter;stroke-opacity:1" />
      <path
         sodipodi:nodetypes="cccscsccccc"
         inkscape:connector-curvature="0"
         id="path4430-4-0"
         d="m 453.49073,51.43598 c 0.7219,0.175103 2.6572,3.621052 2.6572,3.621052 0.12041,-1.545261 -1.60869,-4.512174 -1.60869,-4.512174 0.23389,0.02594 0.31827,0.358423 0.59687,-0.352261 0.27876,-0.710392 0.24472,-0.581112 0.24472,-0.581112 0,0 0.30151,0.204519 -0.52549,0.03676 -0.78729,-0.1597 -0.69524,0.246021 -0.69524,0.246021 -1.14037,-1.894191 -3.20296,-3.681586 -3.20296,-3.681586 0,0 2.12232,2.953483 1.91068,4.279567 0,0 -0.65481,0.440551 -1.1541,1.335597 1.01351,0.11241 1.77683,-0.392176 1.77683,-0.392176 z"
         style="fill:#000000;stroke:#000000;stroke-width:0.1108664px;stroke-linecap:butt;stroke-linejoin:miter;stroke-opacity:1" />
      <path
         sodipodi:nodetypes="cccscsccccc"
         inkscape:connector-curvature="0"
         id="path4430-4-0-3"
         d="m 460.12035,47.178915 c 0.7219,0.175104 2.6572,3.621051 2.6572,3.621051 0.12041,-1.545259 -1.60869,-4.512173 -1.60869,-4.512173 0.23389,0.02594 0.31827,0.358424 0.59687,-0.352261 0.27876,-0.710391 0.24472,-0.581112 0.24472,-0.581112 0,0 0.30151,0.204519 -0.52549,0.03676 -0.78729,-0.159699 -0.69524,0.246022 -0.69524,0.246022 -1.14037,-1.894191 -3.20296,-3.681587 -3.20296,-3.681587 0,0 2.12232,2.953484 1.91067,4.279567 0,0 -0.6548,0.440552 -1.1541,1.335598 1.01352,0.112409 1.77684,-0.392176 1.77684,-0.392176 z"
         style="fill:#000000;stroke:#000000;stroke-width:0.1108664px;stroke-linecap:butt;stroke-linejoin:miter;stroke-opacity:1" />
      <path
         sodipodi:nodetypes="cccscsccccc"
         inkscape:connector-curvature="0"
         id="path4430-4-0-6"
         d="m 450.91004,60.994385 c 0.72189,0.175104 2.6572,3.621052 2.6572,3.621052 0.1204,-1.545261 -1.60869,-4.512174 -1.60869,-4.512174 0.23389,0.02594 0.31827,0.358424 0.59687,-0.352261 0.27876,-0.710392 0.24471,-0.581112 0.24471,-0.581112 0,0 0.30152,0.204519 -0.52549,0.03676 -0.78728,-0.1597 -0.69524,0.246022 -0.69524,0.246022 -1.14036,-1.894192 -3.20296,-3.681587 -3.20296,-3.681587 0,0 2.12232,2.953484 1.91068,4.279567 0,0 -0.6548,0.440552 -1.1541,1.335598 1.01352,0.112409 1.77683,-0.392176 1.77683,-0.392176 z"
         style="fill:#000000;stroke:#000000;stroke-width:0.1108664px;stroke-linecap:butt;stroke-linejoin:miter;stroke-opacity:1" />
      <path
         sodipodi:nodetypes="cccscsccccc"
         inkscape:connector-curvature="0"
         id="path4430-4-0-8"
         d="m 475.36276,51.97359 c -0.72189,0.175104 -2.6572,3.621052 -2.6572,3.621052 -0.1204,-1.54526 1.60869,-4.512174 1.60869,-4.512174 -0.23389,0.02594 -0.31826,0.358424 -0.59687,-0.352261 -0.27876,-0.710391 -0.24471,-0.581112 -0.24471,-0.581112 0,0 -0.30152,0.204519 0.52549,0.03676 0.78728,-0.159699 0.69524,0.246022 0.69524,0.246022 1.14036,-1.894191 3.20296,-3.681587 3.20296,-3.681587 0,0 -2.12232,2.953484 -1.91068,4.279567 0,0 0.6548,0.440552 1.1541,1.335598 -1.01351,0.112409 -1.77683,-0.392176 -1.77683,-0.392176 z"
         style="fill:#000000;stroke:#000000;stroke-width:0.1108664px;stroke-linecap:butt;stroke-linejoin:miter;stroke-opacity:1" />
      <path
         sodipodi:nodetypes="cccscsccccc"
         inkscape:connector-curvature="0"
         id="path4430-4-0-3-8"
         d="m 469.46027,46.989396 c -0.72189,0.175103 -2.6572,3.621051 -2.6572,3.621051 -0.1204,-1.54526 1.60869,-4.512173 1.60869,-4.512173 -0.23389,0.02594 -0.31826,0.358423 -0.59687,-0.352261 -0.27876,-0.710392 -0.24471,-0.581112 -0.24471,-0.581112 0,0 -0.30152,0.204519 0.52549,0.03676 0.78728,-0.1597 0.69524,0.246021 0.69524,0.246021 1.14036,-1.894191 3.20296,-3.681586 3.20296,-3.681586 0,0 -2.12232,2.953483 -1.91068,4.279567 0,0 0.6548,0.440551 1.1541,1.335597 -1.01352,0.11241 -1.77683,-0.392176 -1.77683,-0.392176 z"
         style="fill:#000000;stroke:#000000;stroke-width:0.1108664px;stroke-linecap:butt;stroke-linejoin:miter;stroke-opacity:1" />
      <path
         sodipodi:nodetypes="cccscsccccc"
         inkscape:connector-curvature="0"
         id="path4430-4-0-6-1"
         d="m 478.67059,60.804866 c -0.7219,0.175103 -2.65721,3.621051 -2.65721,3.621051 -0.1204,-1.54526 1.60869,-4.512173 1.60869,-4.512173 -0.23389,0.02594 -0.31826,0.358423 -0.59687,-0.352262 -0.27876,-0.710391 -0.24471,-0.581111 -0.24471,-0.581111 0,0 -0.30152,0.204518 0.52549,0.03676 0.78728,-0.159699 0.69524,0.246022 0.69524,0.246022 1.14036,-1.894191 3.20296,-3.681587 3.20296,-3.681587 0,0 -2.12232,2.953484 -1.91068,4.279568 0,0 0.6548,0.440551 1.1541,1.335597 -1.01351,0.112409 -1.77683,-0.392176 -1.77683,-0.392176 z"
         style="fill:#000000;stroke:#000000;stroke-width:0.1108664px;stroke-linecap:butt;stroke-linejoin:miter;stroke-opacity:1" />
    </g>
    <g
       id="g3111"
       transform="matrix(0.83333335,0,0,0.83333335,3.1903839,20.476807)">
      <path
         inkscape:connector-curvature="0"
         id="path4556-4-17"
         d="m 22.062223,28.159852 27.850747,-10.800271 26.65714,10.400261 0,29.60074 -9.94669,36.0009 L 50.70871,118.56208 34.396125,95.361532 23.653695,58.960622 z"
         style="fill:#00c600;fill-opacity:1;stroke:none" />
      <path
         inkscape:connector-curvature="0"
         id="path4048-9-7-40"
         d="M 49.502669,15.67204 19.849084,26.672312 c 0,0 -4.662514,56.18891 30.150916,95.689868 C 86.00704,78.261112 77.85075,24.859772 77.85075,24.859772 L 49.502669,15.67204 z m 0.373001,4.562612 24.30724,9.12523 c 0,0 7.01272,44.77043 -24.08966,86.314628 C 18.990873,80.384292 23.703428,29.453632 23.703428,29.453632 l 26.172242,-9.21898 z"
         style="fill:#808080;stroke:#000000;stroke-width:0.9973436px;stroke-linecap:butt;stroke-linejoin:miter;stroke-opacity:1" />
      <path
         transform="matrix(1.0253783,0,0,1.0253783,-617.62694,35.768736)"
         d="m 645.69539,21.56748 c 0,4.754769 -3.8545,8.609271 -8.60927,8.609271 -4.75477,0 -8.60927,-3.854502 -8.60927,-8.609271 0,-4.754769 3.8545,-8.609271 8.60927,-8.609271 4.75477,0 8.60927,3.854502 8.60927,8.609271 z"
         sodipodi:ry="8.609271"
         sodipodi:rx="8.609271"
         sodipodi:cy="21.56748"
         sodipodi:cx="637.08612"
         id="path4366-9"
         style="color:#000000;fill:#ffcc00;fill-opacity:1;fill-rule:nonzero;stroke:#000000;stroke-width:1;stroke-linecap:butt;stroke-linejoin:miter;stroke-miterlimit:4;stroke-opacity:1;stroke-dasharray:none;stroke-dashoffset:0;marker:none;visibility:visible;display:inline;overflow:visible;enable-background:accumulate"
         sodipodi:type="arc" />
      <path
         inkscape:connector-curvature="0"
         id="path4372-4"
         d="M 35.726031,64.518808 35.943558,51.248315"
         style="fill:none;stroke:#000000;stroke-width:0.52585149;stroke-linecap:butt;stroke-linejoin:miter;stroke-miterlimit:4;stroke-opacity:1;stroke-dasharray:none" />
      <path
         inkscape:connector-curvature="0"
         id="path4374-8"
         d="m 32.027717,54.946646 7.1791,-0.217545 -6.091376,6.744019"
         style="fill:none;stroke:#000000;stroke-width:0.52585149;stroke-linecap:butt;stroke-linejoin:miter;stroke-miterlimit:4;stroke-opacity:1;stroke-dasharray:none" />
      <path
         transform="matrix(1.0253783,0,0,1.0253783,-590.45753,35.482691)"
         d="m 645.69539,21.56748 c 0,4.754769 -3.8545,8.609271 -8.60927,8.609271 -4.75477,0 -8.60927,-3.854502 -8.60927,-8.609271 0,-4.754769 3.8545,-8.609271 8.60927,-8.609271 4.75477,0 8.60927,3.854502 8.60927,8.609271 z"
         sodipodi:ry="8.609271"
         sodipodi:rx="8.609271"
         sodipodi:cy="21.56748"
         sodipodi:cx="637.08612"
         id="path4366-7-8"
         style="color:#000000;fill:#ffcc00;fill-opacity:1;fill-rule:nonzero;stroke:#000000;stroke-width:1;stroke-linecap:butt;stroke-linejoin:miter;stroke-miterlimit:4;stroke-opacity:1;stroke-dasharray:none;stroke-dashoffset:0;marker:none;visibility:visible;display:inline;overflow:visible;enable-background:accumulate"
         sodipodi:type="arc" />
      <path
         transform="matrix(1.0253783,0,0,1.0253783,-604.57861,11.947584)"
         d="m 645.69539,21.56748 c 0,4.754769 -3.8545,8.609271 -8.60927,8.609271 -4.75477,0 -8.60927,-3.854502 -8.60927,-8.609271 0,-4.754769 3.8545,-8.609271 8.60927,-8.609271 4.75477,0 8.60927,3.854502 8.60927,8.609271 z"
         sodipodi:ry="8.609271"
         sodipodi:rx="8.609271"
         sodipodi:cy="21.56748"
         sodipodi:cx="637.08612"
         id="path4366-6-2"
         style="color:#000000;fill:#ffcc00;fill-opacity:1;fill-rule:nonzero;stroke:#000000;stroke-width:1;stroke-linecap:butt;stroke-linejoin:miter;stroke-miterlimit:4;stroke-opacity:1;stroke-dasharray:none;stroke-dashoffset:0;marker:none;visibility:visible;display:inline;overflow:visible;enable-background:accumulate"
         sodipodi:type="arc" />
      <path
         inkscape:connector-curvature="0"
         id="path4376-4"
         d="m 63.179248,52.545047 c 0,0 -8.329225,-8.560617 -0.694124,12.262489 l 6.24694,-10.411544"
         style="fill:none;stroke:#000000;stroke-width:0.52585149;stroke-linecap:butt;stroke-linejoin:miter;stroke-miterlimit:4;stroke-opacity:1;stroke-dasharray:none" />
      <path
         inkscape:connector-curvature="0"
         id="path4378-5"
         d="M 62.947873,60.874289 67.112529,53.93326"
         style="fill:none;stroke:#000000;stroke-width:0.52585149;stroke-linecap:butt;stroke-linejoin:miter;stroke-miterlimit:4;stroke-opacity:1;stroke-dasharray:none" />
      <path
         inkscape:connector-curvature="0"
         id="path4380-5"
         d="m 61.791087,58.791979 3.470445,-5.321468"
         style="fill:none;stroke:#000000;stroke-width:0.52585149;stroke-linecap:butt;stroke-linejoin:miter;stroke-miterlimit:4;stroke-opacity:1;stroke-dasharray:none" />
      <path
         inkscape:connector-curvature="0"
         id="path5130-1"
         d="m 49.90985,40.703441 0,-13.146287 -5.258515,5.258514 0,5.258516 5.258515,-5.258516 2.629257,-2.629257"
         style="fill:none;stroke:#000000;stroke-width:0.52585155px;stroke-linecap:butt;stroke-linejoin:miter;stroke-opacity:1" />
      <path
         inkscape:connector-curvature="0"
         id="path5132-7"
         d="m 47.280592,40.703441 0,-5.258515"
         style="fill:none;stroke:#000000;stroke-width:0.52585155px;stroke-linecap:butt;stroke-linejoin:miter;stroke-opacity:1" />
      <path
         transform="matrix(1.0253783,0,0,1.0253783,-604.17129,58.291351)"
         d="m 645.69539,21.56748 c 0,4.754769 -3.8545,8.609271 -8.60927,8.609271 -4.75477,0 -8.60927,-3.854502 -8.60927,-8.609271 0,-4.754769 3.8545,-8.609271 8.60927,-8.609271 4.75477,0 8.60927,3.854502 8.60927,8.609271 z"
         sodipodi:ry="8.609271"
         sodipodi:rx="8.609271"
         sodipodi:cy="21.56748"
         sodipodi:cx="637.08612"
         id="path4366-6-8-1"
         style="color:#000000;fill:#ffcc00;fill-opacity:1;fill-rule:nonzero;stroke:#000000;stroke-width:1;stroke-linecap:butt;stroke-linejoin:miter;stroke-miterlimit:4;stroke-opacity:1;stroke-dasharray:none;stroke-dashoffset:0;marker:none;visibility:visible;display:inline;overflow:visible;enable-background:accumulate"
         sodipodi:type="arc" />
      <path
         inkscape:connector-curvature="0"
         id="path5160-1"
         d="M 49.476233,87.453514 51.365801,76.116139"
         style="fill:none;stroke:#000000;stroke-width:0.52585149;stroke-linecap:butt;stroke-linejoin:miter;stroke-miterlimit:4;stroke-opacity:1;stroke-dasharray:none" />
      <path
         inkscape:connector-curvature="0"
         id="path5162-5"
         d="m 47.586673,85.563955 1.88956,-11.337376"
         style="fill:none;stroke:#000000;stroke-width:0.52585149;stroke-linecap:butt;stroke-linejoin:miter;stroke-miterlimit:4;stroke-opacity:1;stroke-dasharray:none" />
      <path
         sodipodi:nodetypes="cc"
         inkscape:connector-curvature="0"
         id="path5164-2"
         d="m 53.255361,79.895267 c 0,0 -17.006064,-15.116495 -1.88956,5.668688"
         style="fill:none;stroke:#000000;stroke-width:0.52585149;stroke-linecap:butt;stroke-linejoin:miter;stroke-miterlimit:4;stroke-opacity:1;stroke-dasharray:none" />
      <path
         inkscape:connector-curvature="0"
         id="path5168-7"
         d="m 45.697113,81.784826 1.88956,-1.889559"
         style="fill:none;stroke:#000000;stroke-width:0.52585149;stroke-linecap:butt;stroke-linejoin:miter;stroke-miterlimit:4;stroke-opacity:1;stroke-dasharray:none" />
    </g>
    <g
       id="g3264">
      <path
         inkscape:connector-curvature="0"
         id="path4556-4-61"
         d="m 302.06222,148.15985 27.85075,-10.80027 26.65714,10.40026 0,29.60074 -9.94669,36.0009 -15.91471,25.20061 -16.31259,-23.20056 -10.74242,-36.40091 z"
         style="fill:#ff6600;stroke:none" />
      <path
         inkscape:connector-curvature="0"
         id="path3959"
         d="m 301.93916,166.47804 c 0,0 3.70371,-11.64021 17.46032,-11.11111 0,0 -8.46561,9.52381 0,10.05291 8.46561,0.5291 6.34921,-10.05291 15.87302,-10.05291 0,0 -6.34921,10.05291 -0.52911,9.52381 5.82011,-0.5291 5.29101,-9.52381 14.28572,-9.52381 0,0 -7.93651,9.52381 5.291,9.52381 l 2.11641,12.69841 -10.58201,37.03704 -15.34392,22.75132 -16.40212,-22.75132 -10.58201,-32.80424 z"
         style="fill:#0041ff;fill-opacity:1;stroke:#000000;stroke-width:1px;stroke-linecap:butt;stroke-linejoin:miter;stroke-opacity:1" />
      <path
         inkscape:connector-curvature="0"
         id="path4048-9-7-42"
         d="m 329.50267,135.67204 -29.65359,11.00027 c 0,0 -4.66251,56.18891 30.15092,95.68988 36.00704,-44.10108 27.85075,-97.50242 27.85075,-97.50242 l -28.34808,-9.18773 z m 0.373,4.56261 24.30724,9.12523 c 0,0 7.01272,44.77043 -24.08966,86.31464 -31.10238,-35.29023 -26.38982,-86.22089 -26.38982,-86.22089 l 26.17224,-9.21898 z"
         style="fill:#808080;stroke:#000000;stroke-width:0.9973436px;stroke-linecap:butt;stroke-linejoin:miter;stroke-opacity:1" />
      <path
         sodipodi:nodetypes="ccccccc"
         inkscape:connector-curvature="0"
         id="path4109-0-3"
         d="m 315.01805,194.94484 c 0,0 12.37062,16.81137 26.96161,0.3172 l 2.53758,0.95158 -0.63441,-5.07513 -5.39232,0.6344 1.58599,1.58597 c 0,0 -11.10185,13.00503 -22.83808,0.3172 l 1.58596,-2.53757 -5.07512,0.31719 0,5.70954 z"
         style="fill:#000000;stroke:#000000;stroke-width:0.7929889px;stroke-linecap:butt;stroke-linejoin:miter;stroke-opacity:0" />
      <path
         inkscape:connector-curvature="0"
         id="path4113-2-2"
         d="m 327.21812,200.1899 0,-20.01029 -12.00617,0 0,-4.00205 12.00617,0 0,-4.00206 4.00206,0 0,4.00206 12.00618,0 0,4.00205 -12.00618,0 0,20.01029 z"
         style="fill:#000000;stroke:#000000;stroke-width:0.80041158px;stroke-linecap:butt;stroke-linejoin:miter;stroke-opacity:0" />
    </g>
    <g
       id="g3227">
      <path
         inkscape:connector-curvature="0"
         id="path4556-4-21"
         d="m 372.06223,148.15985 27.85074,-10.80027 26.65715,10.40026 0,29.60074 -9.9467,36.0009 -15.91471,25.20061 -16.31258,-23.20056 -10.74243,-36.40091 z"
         style="fill:#ffcc00;stroke:none" />
      <path
         inkscape:connector-curvature="0"
         id="path4048-9-7-6"
         d="m 399.50267,135.67204 -29.65358,11.00027 c 0,0 -4.66252,56.18891 30.15092,95.68988 36.00703,-44.10108 27.85074,-97.50242 27.85074,-97.50242 l -28.34808,-9.18773 z m 0.373,4.56261 24.30724,9.12523 c 0,0 7.01273,44.77043 -24.08965,86.31464 -31.10238,-35.29023 -26.38983,-86.22089 -26.38983,-86.22089 l 26.17224,-9.21898 z"
         style="fill:#808080;stroke:#000000;stroke-width:0.9973436px;stroke-linecap:butt;stroke-linejoin:miter;stroke-opacity:1" />
      <rect
         transform="matrix(0.8660254,-0.5,0.5,0.8660254,0,0)"
         y="338.46872"
         x="253.76923"
         height="43.1768"
         width="1.5627493"
         id="rect6769-9-9-8"
         style="fill:#552200;fill-opacity:1;stroke:#000000;stroke-width:0.4196524;stroke-miterlimit:4;stroke-opacity:1;stroke-dasharray:none" />
      <path
         inkscape:connector-curvature="0"
         id="path6794-3-5"
         d="m 383.78411,165.95704 c 0,0 6.14387,3.65715 9.16469,-5.07935 l -4.81084,-8.02896 c 0,0 -6.11291,2.46983 -8.9812,5.39719 z"
         style="fill:#666666;stroke:#000000;stroke-width:0.55584204px;stroke-linecap:butt;stroke-linejoin:miter;stroke-opacity:1" />
      <rect
         transform="matrix(0.8660254,0.5,-0.5,0.8660254,0,0)"
         y="-59.402817"
         x="435.54135"
         height="43.017559"
         width="1.5569859"
         id="rect6769-4-7"
         style="fill:#552200;fill-opacity:1;stroke:#000000;stroke-width:0.41810468;stroke-miterlimit:4;stroke-opacity:1;stroke-dasharray:none" />
      <path
         sodipodi:nodetypes="csccccccccccc"
         inkscape:connector-curvature="0"
         id="path6771-4-6"
         d="m 407.79739,155.21427 c 0,0 -5.11992,8.54147 -0.13147,11.32733 4.98801,2.78556 9.78489,-5.84816 9.78489,-5.84816 l 0.13415,-2.84404 -1.64837,1.87559 c 0,0 -2.59568,5.47523 -6.78845,5.88173 l 3.93939,-7.14969 0.84383,-3.09396 -2.11615,2.35941 -3.9394,7.14971 c 0,0 -2.8192,-1.15648 1.16391,-9.03487 l 0.53934,-2.89284 z"
         style="fill:#666666;stroke:#000000;stroke-width:0.50601494px;stroke-linecap:butt;stroke-linejoin:miter;stroke-opacity:1" />
    </g>
    <g
       id="g3235">
      <path
         inkscape:connector-curvature="0"
         id="path4556-4-174"
         d="m 442.18655,150.28738 27.85075,-10.80027 26.65714,10.40026 0,29.60074 -9.94669,36.0009 -15.91471,25.20061 -16.31258,-23.20056 -10.74243,-36.40091 z"
         style="fill:#800000;stroke:none" />
      <path
         inkscape:connector-curvature="0"
         id="path4048-9-7-0"
         d="m 469.627,137.79957 -29.65359,11.00027 c 0,0 -4.66251,56.18891 30.15092,95.68988 36.00704,-44.10108 27.85075,-97.50242 27.85075,-97.50242 L 469.627,137.79957 z m 0.373,4.56261 24.30724,9.12523 c 0,0 7.01273,44.77043 -24.08966,86.31464 -31.10238,-35.29023 -26.38982,-86.22089 -26.38982,-86.22089 L 470,142.36218 z"
         style="fill:#808080;stroke:#000000;stroke-width:0.9973436px;stroke-linecap:butt;stroke-linejoin:miter;stroke-opacity:1" />
      <g
         transform="matrix(0.74598798,0,0,0.74598798,56.322365,62.625394)"
         id="g3110">
        <path
           style="fill:#28170b;stroke:#000000;stroke-width:1px;stroke-linecap:butt;stroke-linejoin:miter;stroke-opacity:1"
           d="m 544.64396,173.86373 c 0,0 9.8452,-5.40247 7.36842,-8.18885 -2.47678,-2.78638 -6.19195,-7.73994 -3.40557,-9.59753 2.78638,-1.85758 3.71517,-3.09597 0,-5.57275 -3.71517,-2.47678 5.57275,-3.40557 6.50155,-10.52632 l 3.71517,0 c 0,0 -3.09598,6.50155 -4.95356,7.73994 -1.85759,1.23839 0.55949,5.90874 1.23839,5.26316 3.14897,-2.99442 4.64395,-4.64396 8.66872,-2.78638 4.02477,1.85759 3.09599,5.26316 8.35914,2.78638 0,0 -4.105,2.65643 -10.21672,0.61919 -2.78638,-0.92879 -6.19195,0.3096 -6.81114,1.85759 0,0 -7.43034,2.16718 -0.3096,9.59752 7.12074,7.43034 -0.6192,4.02477 2.47678,6.50155 3.09597,2.47678 3.09597,2.16718 6.19195,2.47678 z"
           id="path3104"
           inkscape:connector-curvature="0"
           sodipodi:nodetypes="csssccssscsc" />
        <path
           style="fill:#445500;stroke:#000000;stroke-width:1px;stroke-linecap:butt;stroke-linejoin:miter;stroke-opacity:1"
           d="m 579.56657,145.24144 c 0,0 -3.71517,3.40557 -17.33746,-2.47678 -13.62229,-5.88235 -6.81115,4.95356 -17.02787,1.85758 -10.21671,-3.09597 -16.40867,6.81115 -17.02786,-2.47678 -0.6192,-9.28792 17.02786,-3.71517 20.12384,-8.35913 3.09597,-4.64396 11.14551,-4.02477 12.3839,-3.09597 1.23839,0.92879 7.43034,8.04953 11.76471,7.43034 4.33436,-0.6192 8.04953,3.71517 7.12074,7.12074 z"
           id="path3106"
           inkscape:connector-curvature="0" />
        <path
           style="fill:#445500;stroke:#000000;stroke-width:1px;stroke-linecap:butt;stroke-linejoin:miter;stroke-opacity:1"
           d="m 558.51393,156.38695 c 5.88236,-6.81114 7.73994,-11.14551 11.76471,-7.73994 4.02477,3.40558 6.81115,3.40558 9.59752,3.71517 2.78638,0.3096 -1.23839,5.26316 -6.50154,4.02477 -5.26316,-1.23839 -6.81115,-1.23839 -8.97833,0 -2.16718,1.23839 -4.02477,6.81115 -5.88236,0 z"
           id="path3108"
           inkscape:connector-curvature="0" />
      </g>
    </g>
    <g
       id="g3243">
      <path
         inkscape:connector-curvature="0"
         id="path4556-4-94"
         d="m 512.18656,150.28738 27.85074,-10.80027 26.65715,10.40026 0,29.60074 -9.9467,36.0009 -15.91471,25.20061 -16.31258,-23.20056 -10.74243,-36.40091 z"
         style="fill:#0b0b28;stroke:none" />
      <path
         inkscape:connector-curvature="0"
         id="path4471-2"
         d="m 537.84597,173.67978 c 0,0 10.5783,3.5261 14.1045,-6.3176 3.526,-9.84371 -6.4646,-12.78213 -6.4646,-12.78213 0,0 6.4646,6.17068 2.9384,13.07597 -3.5261,6.90528 -10.5783,6.02376 -10.5783,6.02376 z"
         style="fill:#ffe680;stroke:#000000;stroke-width:0.42313233px;stroke-linecap:butt;stroke-linejoin:miter;stroke-opacity:1" />
      <path
         inkscape:connector-curvature="0"
         id="path3154"
         d="m 513.62229,181.46435 12.3839,-20.43344 13.0031,19.19505 8.04953,-11.14551 16.40867,20.12384 c 0,0 -4.02477,28.17337 -22.60062,51.08359 0,0 -16.71827,-6.81115 -27.24458,-58.82353 z"
         style="fill:#4d4d4d;stroke:#000000;stroke-width:1px;stroke-linecap:butt;stroke-linejoin:miter;stroke-opacity:1" />
      <path
         inkscape:connector-curvature="0"
         id="path4048-9-7-88"
         d="m 539.627,137.79957 -29.65358,11.00027 c 0,0 -4.66252,56.18891 30.15092,95.68988 36.00703,-44.10108 27.85074,-97.50242 27.85074,-97.50242 L 539.627,137.79957 z m 0.373,4.56261 24.30724,9.12523 c 0,0 7.01273,44.77043 -24.08965,86.31464 -31.10238,-35.29023 -26.38983,-86.22089 -26.38983,-86.22089 L 540,142.36218 z"
         style="fill:#808080;stroke:#000000;stroke-width:0.9973436px;stroke-linecap:butt;stroke-linejoin:miter;stroke-opacity:1" />
    </g>
    <g
       id="g3249">
      <path
         inkscape:connector-curvature="0"
         id="path4556-4-45"
         d="m 582.18656,150.28738 27.85074,-10.80027 26.65715,10.40026 0,29.60074 -9.9467,36.0009 -15.91471,25.20061 -16.31258,-23.20056 -10.74243,-36.40091 z"
         style="fill:#ffcc00;stroke:none" />
      <path
         sodipodi:nodetypes="ccccccccc"
         inkscape:connector-curvature="0"
         id="path3225"
         d="m 585,172.36218 25,35 25,-35 2.65432,-5.49382 -0.92592,-15.74075 -28.39507,-11.41975 -25.61728,11.41975 -0.61728,17.90124 z"
         style="fill:#0000ff;stroke:#000000;stroke-width:1px;stroke-linecap:butt;stroke-linejoin:miter;stroke-opacity:1" />
      <path
         sodipodi:nodetypes="ccccc"
         inkscape:connector-curvature="0"
         id="path3223"
         d="M 582.83951,150.51033 610,187.36218 636.85185,151.12761 610,142.36218 z"
         style="fill:#ffcc00;stroke:#000000;stroke-width:1px;stroke-linecap:butt;stroke-linejoin:miter;stroke-opacity:1" />
      <path
         inkscape:connector-curvature="0"
         id="path4048-9-7-51"
         d="m 609.627,137.79957 -29.65358,11.00027 c 0,0 -4.66252,56.18891 30.15092,95.68988 36.00704,-44.10108 27.85075,-97.50242 27.85075,-97.50242 L 609.627,137.79957 z m 0.373,4.56261 24.30724,9.12523 c 0,0 7.01273,44.77043 -24.08965,86.31464 -31.10238,-35.29023 -26.38983,-86.22089 -26.38983,-86.22089 L 610,142.36218 z"
         style="fill:#808080;stroke:#000000;stroke-width:0.9973436px;stroke-linecap:butt;stroke-linejoin:miter;stroke-opacity:1" />
    </g>
    <g
       id="g3255">
      <path
         inkscape:connector-curvature="0"
         id="path4556-4-7"
         d="m 652.18655,150.28738 27.85075,-10.80027 26.65714,10.40026 0,29.60074 -9.94669,36.0009 -15.91471,25.20061 -16.31258,-23.20056 -10.74243,-36.40091 z"
         style="fill:#008080;stroke:none" />
      <path
         inkscape:connector-curvature="0"
         id="path4048-9-7-1"
         d="m 679.627,137.79957 -29.65359,11.00027 c 0,0 -4.66251,56.18891 30.15092,95.68988 36.00704,-44.10108 27.85075,-97.50242 27.85075,-97.50242 L 679.627,137.79957 z m 0.373,4.56261 24.30724,9.12523 c 0,0 7.01273,44.77043 -24.08966,86.31464 -31.10238,-35.29023 -26.38982,-86.22089 -26.38982,-86.22089 L 680,142.36218 z"
         style="fill:#808080;stroke:#000000;stroke-width:0.9973436px;stroke-linecap:butt;stroke-linejoin:miter;stroke-opacity:1" />
      <g
         transform="translate(104.32099,-88.888889)"
         id="g3217">
        <path
           style="fill:#008000;stroke:#000000;stroke-width:0.8713038px;stroke-linecap:butt;stroke-linejoin:miter;stroke-opacity:1"
           d="m 577.34568,298.96712 c 0,0 -2.12989,-45.91934 -12.7793,-46.56609 0,0 9.79746,5.82076 8.51953,46.56609 z"
           id="path7554-7-3"
           inkscape:connector-curvature="0"
           sodipodi:nodetypes="cccc" />
        <path
           style="fill:#008000;stroke:#000000;stroke-width:0.71572965px;stroke-linecap:butt;stroke-linejoin:miter;stroke-opacity:1"
           d="m 575.98942,299.31032 c 0,0 2.15582,-30.61254 12.93488,-31.0437 0,0 -9.91674,3.88046 -8.62325,31.0437 z"
           id="path7554"
           inkscape:connector-curvature="0"
           sodipodi:nodetypes="cccc" />
        <path
           style="fill:#008000;stroke:#000000;stroke-width:0.71572965px;stroke-linecap:butt;stroke-linejoin:miter;stroke-opacity:1"
           d="m 576.22841,299.4602 c 0,0 -2.15582,-30.61254 -12.93488,-31.0437 0,0 9.91674,3.88046 8.62325,31.0437 z"
           id="path7554-7"
           inkscape:connector-curvature="0"
           sodipodi:nodetypes="cccc" />
        <path
           style="fill:#ff0000;stroke:#000000;stroke-width:0.42857149px;stroke-linecap:butt;stroke-linejoin:miter;stroke-opacity:1"
           d="m 560.43811,248.25735 c 0,0 3.75688,2.97407 2.72381,5.823 -1.03306,2.84894 3.63175,7.76401 7.51375,5.94814 l 0,0 c 3.88201,-1.81588 3.0992,-8.54682 0.25026,-9.57989 -2.84894,-1.03305 -2.72381,-5.823 -2.72381,-5.823 0,0 -2.06613,5.69788 -7.76401,3.63175 z"
           id="path3197"
           inkscape:connector-curvature="0"
           sodipodi:nodetypes="csccsc" />
      </g>
    </g>
    <g
       id="g4040">
      <path
         inkscape:connector-curvature="0"
         id="path4556-4-1740"
         d="m 501.82213,43.966513 23.20896,-9.00022 22.21428,8.66688 0,24.66728 -8.28891,30.00075 -13.26226,21.000507 -13.59382,-19.333797 -8.95202,-30.33409 z"
         style="fill:#5fd38d;stroke:none" />
      <path
         sodipodi:nodetypes="csccscc"
         inkscape:connector-curvature="0"
         id="path3151-8"
         d="m 502.11832,66.665527 c 0,0 13.32061,-8.549619 22.09924,-0.916031 8.77863,7.633588 21.75573,-2.671756 21.75573,-2.671756 l -1.69848,8.750091 c 0,0 -10.68702,8.015268 -19.46565,0.38168 C 516.03053,64.575923 505,72.362183 505,72.362183 z"
         style="fill:#0000ff;stroke:#000000;stroke-width:1px;stroke-linecap:butt;stroke-linejoin:miter;stroke-opacity:1" />
      <path
         inkscape:connector-curvature="0"
         id="path4048-9-7-94"
         d="m 524.68917,33.560003 -24.71132,9.1669 c 0,0 -3.88543,46.82409 25.12576,79.741557 30.00587,-36.750897 23.20896,-81.252007 23.20896,-81.252007 l -23.6234,-7.65645 z m 0.31083,3.80218 20.25603,7.60436 c 0,0 5.84394,37.30869 -20.07471,71.928857 C 499.26267,87.486883 503.1898,45.044663 503.1898,45.044663 L 525,37.362183 z"
         style="fill:#808080;stroke:#000000;stroke-width:0.83111966px;stroke-linecap:butt;stroke-linejoin:miter;stroke-opacity:1" />
      <path
         sodipodi:nodetypes="ccccc"
         inkscape:connector-curvature="0"
         id="path3917-4-6-27-2-0-6-6-2-6-95-9-3"
         d="m 531.03105,61.803859 c 0,0 1.95277,-1.91455 2.26501,-6.753765 l 2.04058,-0.102097 c 0,0 -0.64991,3.303721 2.00385,6.816084 z"
         style="fill:#552200;stroke:#000000;stroke-width:0.18162359px;stroke-linecap:butt;stroke-linejoin:miter;stroke-opacity:1;display:inline" />
      <path
         inkscape:connector-curvature="0"
         id="path3999-3-2-5-8-6-48-0-7-92-0-5"
         d="m 534.549,55.833184 -2.99678,2.905979 0.99893,-2.451917 -3.26924,1.725447 2.27031,-2.724374 -1.72545,1.089779 3.08763,-3.995757 -1.9979,1.180582 2.99683,-3.723301 -1.27138,0.36326 1.45299,-2.905979 -1.36219,1.08973 1.99791,-4.540572 2.08865,3.450842 -1.45298,-0.726519 1.90705,2.724373 -1.90705,-1.180531 2.90597,4.08651 -2.45191,-1.816249 2.54272,3.632498 -2.54272,-1.08978 2.63352,3.450893 -1.8162,-0.272456 0.63567,1.907051 z"
         style="fill:#008000;stroke:#000000;stroke-width:0.18162359px;stroke-linecap:butt;stroke-linejoin:miter;stroke-opacity:1;display:inline" />
      <path
         sodipodi:nodetypes="ccccc"
         inkscape:connector-curvature="0"
         id="path3917-4-6-27-2-0-6-6-2-6-95-9-3-8"
         d="m 511.66696,61.341082 c 0,0 1.95277,-1.91455 2.26501,-6.753765 l 2.04058,-0.102097 c 0,0 -0.64991,3.303721 2.00385,6.816084 z"
         style="fill:#552200;stroke:#000000;stroke-width:0.18162359px;stroke-linecap:butt;stroke-linejoin:miter;stroke-opacity:1;display:inline" />
      <path
         inkscape:connector-curvature="0"
         id="path3999-3-2-5-8-6-48-0-7-92-0-5-2"
         d="m 515.18491,55.370407 -2.99678,2.905979 0.99893,-2.451917 -3.26924,1.725447 2.27031,-2.724374 -1.72545,1.089779 3.08763,-3.995757 -1.9979,1.180582 2.99683,-3.723301 -1.27138,0.36326 1.45299,-2.905979 -1.36219,1.08973 1.99791,-4.540572 2.08865,3.450842 -1.45298,-0.726519 1.90705,2.724373 -1.90705,-1.180531 2.90597,4.08651 -2.45191,-1.816249 2.54272,3.632498 -2.54272,-1.08978 2.63352,3.450893 -1.8162,-0.272456 0.63567,1.907051 z"
         style="fill:#008000;stroke:#000000;stroke-width:0.18162359px;stroke-linecap:butt;stroke-linejoin:miter;stroke-opacity:1;display:inline" />
      <path
         sodipodi:nodetypes="ccccc"
         inkscape:connector-curvature="0"
         id="path3917-4-6-27-2-0-6-6-2-6-95-9-3-4"
         d="m 521.59062,97.982303 c 0,0 1.95277,-1.91455 2.26501,-6.753765 l 2.04058,-0.102097 c 0,0 -0.64991,3.303721 2.00385,6.816084 z"
         style="fill:#552200;stroke:#000000;stroke-width:0.18162359px;stroke-linecap:butt;stroke-linejoin:miter;stroke-opacity:1;display:inline" />
      <path
         inkscape:connector-curvature="0"
         id="path3999-3-2-5-8-6-48-0-7-92-0-5-5"
         d="m 525.10857,92.011628 -2.99678,2.905979 0.99893,-2.451917 -3.26924,1.725447 2.27031,-2.724374 -1.72545,1.089779 3.08763,-3.995757 -1.9979,1.180582 2.99683,-3.723301 -1.27138,0.36326 1.45299,-2.905979 -1.36219,1.08973 1.99791,-4.540572 2.08865,3.450842 -1.45298,-0.726519 1.90705,2.724373 -1.90705,-1.180531 2.90597,4.08651 -2.45191,-1.816249 2.54272,3.632498 -2.54272,-1.08978 2.63352,3.450893 -1.8162,-0.272456 0.63567,1.907051 z"
         style="fill:#008000;stroke:#000000;stroke-width:0.18162359px;stroke-linecap:butt;stroke-linejoin:miter;stroke-opacity:1;display:inline" />
    </g>
    <g
       id="g4033">
      <path
         inkscape:connector-curvature="0"
         id="path4556-4-5"
         d="m 561.82213,43.966513 23.20895,-9.00022 22.21429,8.66688 0,24.66728 -8.28891,30.000752 -13.26226,21.000505 -13.59382,-19.333795 -8.95202,-30.334092 z"
         style="fill:#800080;stroke:none" />
      <path
         inkscape:connector-curvature="0"
         id="path4048-9-7-17"
         d="m 584.68917,33.560003 -24.71132,9.1669 c 0,0 -3.88543,46.82409 25.12576,79.741557 30.00587,-36.750897 23.20896,-81.252007 23.20896,-81.252007 l -23.6234,-7.65645 z m 0.31083,3.80218 20.25603,7.60436 c 0,0 5.84394,37.30869 -20.07471,71.928857 C 559.26267,87.486883 563.1898,45.044663 563.1898,45.044663 L 585,37.362183 z"
         style="fill:#808080;stroke:#000000;stroke-width:0.83111966px;stroke-linecap:butt;stroke-linejoin:miter;stroke-opacity:1" />
      <g
         transform="matrix(0.34660217,0,0,0.34660217,359.26119,58.28694)"
         id="g4029">
        <path
           style="fill:#552200;stroke:#000000;stroke-width:1.44183004px;stroke-linecap:butt;stroke-linejoin:miter;stroke-opacity:1"
           d="m 640,-7.6378174 c 0,95.0000004 4.4183,129.7647074 4.4183,129.7647074 -7.20915,14.4183 -14.4183,0 -14.4183,0 0,0 5,-29.764707 5,-129.7647074 0,0 5,0 5,0 z"
           id="path3255"
           inkscape:connector-curvature="0"
           sodipodi:nodetypes="cccc" />
        <path
           style="fill:#666666;stroke:#000000;stroke-width:1px;stroke-linecap:butt;stroke-linejoin:miter;stroke-opacity:1"
           d="m 640,-2.6378174 c 0,0 30,-5 30,-34.9999996 0,0 40,34.9999996 0,85 0,0 10,-35 -30,-30"
           id="path3257"
           inkscape:connector-curvature="0" />
      </g>
    </g>
  </g>
</svg>
